<?xml version="1.0" encoding="UTF-8" standalone="no"?>
<svg
   height="21.322178"
   viewBox="0 -960 845.82726 852.88712"
   width="21.145681"
   version="1.1"
   id="svg4"
   xmlns="http://www.w3.org/2000/svg"
   xmlns:svg="http://www.w3.org/2000/svg">
  <defs
     id="defs8" />
  <path
     style="opacity:1;fill:#c5ac2d;fill-opacity:1;stroke-width:11.7614"
     d="m 674.54992,-212.95542 c -131.444,-129.57812 -212.8705,-208.38652 -230.4902,-223.07948 -9.3592,-7.80456 -16.0706,-10.38776 -22.6789,-8.7292 -9.2749,2.328 -72.4,61.14224 -254.87808,237.47284 -51.51515,49.77968 -95.713755,90.50847 -98.219125,90.50847 -2.50536,0 -18.8941,-14.18644 -36.419415,-31.52544 L 1.0498044e-7,-179.83362 42.966245,-224.57938 c 23.63144,-24.6102 83.569885,-85.9322 133.196535,-136.2712 120.8172,-122.55136 161.18994,-165.9778 161.18994,-173.38216 0,-6.39176 -53.61056,-62.51028 -231.84224,-242.68824 C 48.447405,-834.60715 1.2665301,-883.2215 0.6640901,-884.9528 c -1.51668,-4.3587 62.0655849,-65.7283 68.0980749,-65.7283 2.68736,0 54.205085,48.0509 114.483795,106.77967 169.18786,164.83767 235.17746,226.77966 241.59866,226.77966 3.2384,0 28.2619,-21.50847 55.6082,-47.7966 27.3464,-26.28814 53.5834,-51.45763 58.3046,-55.93221 4.7211,-4.47457 61.2485,-60.11371 125.6163,-123.64251 L 781.40612,-960 l 32.2106,32.0216 c 17.7158,17.612 32.2106,34.6718 32.2106,37.9109 0,7.4358 -25.2426,33.9523 -200.5414,210.66303 -78.0986,78.72757 -141.3499,144.99837 -140.5585,147.26845 0.7912,2.27 33.492,36.70408 72.6681,76.52 187.6412,190.70556 268.4318,274.4074 268.4318,278.10476 0,2.2224 -14.38,18.97136 -31.9554,37.21971 l -31.9553,33.17872 z"
     id="path1728" />
</svg>
