<?xml version="1.0" encoding="UTF-8" standalone="no"?>
<svg
   id="Layer_1"
   data-name="Layer 1"
   viewBox="0 0 1.6875 1.6875"
   width="36"
   height="36"
   version="1.1"
   xmlns="http://www.w3.org/2000/svg"
   xmlns:svg="http://www.w3.org/2000/svg">
  <defs
     id="defs1088" />
  <path
     d="m 1.6301826,0.67879687 c -0.034951,-0.0317109 -0.08038,-0.0483047 -0.1272162,-0.0457734 -0.047117,0.00218 -0.090577,0.0225703 -0.1222936,0.0574453 L 1.1182233,0.97896094 C 1.0961415,0.90105469 1.0243406,0.84375 0.93945946,0.84375 H 0.17581021 C 0.07890362,0.84375 0,0.92257031 0,1.0195312 V 1.5117187 C 0,1.6086797 0.07890362,1.6875 0.17581021,1.6875 H 0.96512775 L 1.6429816,0.92692969 C 1.7070469,0.855 1.7012803,0.74376562 1.6301123,0.67886719 Z M 1.5905198,0.88003125 0.93369289,1.6171172 H 0.17581021 c -0.058158,0 -0.10548612,-0.04732 -0.10548612,-0.1054688 V 1.0194609 c 0,-0.0581484 0.04732811,-0.10546871 0.10548612,-0.10546871 h 0.76357893 c 0.0636433,0 0.11547216,0.0518203 0.11547216,0.11552341 0,0.057094 -0.042616,0.1062422 -0.098735,0.1141875 l -0.39810465,0.05182 0.009072,0.06975 0.39852659,-0.051891 C 1.0374912,1.2031172 1.095368,1.1516484 1.1165355,1.0852031 L 1.4326423,0.73785937 c 0.019128,-0.0210234 0.045289,-0.0333281 0.073629,-0.0345937 0.027989,-0.001477 0.055556,0.008508 0.076513,0.0275625 0.042827,0.0390938 0.046273,0.10603125 0.00767,0.14927344 z M 0.4922686,0.2109375 H 0.77356494 V 0.28125 H 0.4922686 Z M 1.0548613,0.140625 C 1.0548613,0.06307031 0.9917806,0 0.91421312,0 H 0.35162043 C 0.27405296,0 0.21097226,0.06307031 0.21097226,0.140625 v 0.5625 H 1.0548613 Z M 0.9845372,0.6328125 H 0.28129634 V 0.140625 c 0,-0.0388125 0.0315755,-0.0703125 0.0703241,-0.0703125 h 0.56259269 c 0.0387486,0 0.0703241,0.0315 0.0703241,0.0703125 z"
     id="path1083"
     style="stroke-width:0.0703183" />
</svg>
