<?xml version="1.0" encoding="UTF-8" standalone="no"?>
<svg
   id="Layer_1"
   data-name="Layer 1"
   viewBox="0 0 36 36"
   version="1.1"
   width="36"
   height="36"
   xmlns="http://www.w3.org/2000/svg"
   xmlns:svg="http://www.w3.org/2000/svg">
  <defs
     id="defs1237" />
  <path
     d="m 17.998493,25.173913 7.458305,-7.257871 c 1.992298,-1.982009 3.090925,-4.617691 3.090925,-7.421289 0,-2.8035986 -1.098627,-5.4377815 -3.090925,-7.4212897 C 23.466008,1.0914543 20.816644,0 17.998493,0 15.180342,0 12.530978,1.0914543 10.538681,3.0734633 6.4259879,7.1649175 6.4259879,13.823088 10.544681,17.92054 l 7.453784,7.251874 z M 11.604153,4.1334333 c 1.708975,-1.6986507 3.980073,-2.6341829 6.39434,-2.6341829 2.414267,0 4.685365,0.9355322 6.392833,2.6341829 1.708975,1.6986507 2.649364,3.958021 2.649364,6.3613197 0,2.403298 -0.940389,4.661169 -2.643336,6.355322 l -6.398861,6.227886 -6.39434,-6.221889 c -3.5249501,-3.506747 -3.5249501,-9.2143928 0,-12.7211395 z m 6.39434,10.8290857 c 2.48359,0 4.506028,-2.010495 4.506028,-4.482759 0,-2.4722637 -2.022438,-4.4827585 -4.506028,-4.4827585 -2.48359,0 -4.506028,2.0104948 -4.506028,4.4827585 0,2.472264 2.022438,4.482759 4.506028,4.482759 z m 0,-7.4662671 c 1.654722,0 2.998995,1.3388306 2.998995,2.9835081 0,1.644678 -1.34578,2.983508 -2.998995,2.983508 -1.653215,0 -2.998995,-1.33883 -2.998995,-2.983508 0,-1.6446775 1.34578,-2.9835081 2.998995,-2.9835081 z M 35.996986,25.256372 17.998493,36 0,25.256372 8.5358339,20.161919 v 0 L 9.7158406,21.310345 2.9296718,25.256372 18,34.251874 33.070328,25.256372 26.315807,21.277361 27.462659,20.161919 36,25.257871 Z"
     id="path1232"
     style="stroke-width:1.50313" />
</svg>
